<svg xmlns="http://www.w3.org/2000/svg" viewBox="-4 -4 208 288" ><defs>
<linearGradient id="azB" x1="0" y1="0" x2="0.35" y2="1"><stop offset="0" stop-color="#36B4F2"/><stop offset=".5" stop-color="#0B6DD6"/><stop offset="1" stop-color="#0A3D8F"/></linearGradient>
<linearGradient id="azT" x1="0" y1="1" x2="1" y2="0"><stop offset="0" stop-color="#5CC8F7"/><stop offset="1" stop-color="#1A7FE0"/></linearGradient>
<linearGradient id="mdB" x1="0" y1="0" x2="0.35" y2="1"><stop offset="0" stop-color="#2FD69A"/><stop offset=".5" stop-color="#14A874"/><stop offset="1" stop-color="#0A5E47"/></linearGradient>
<linearGradient id="mdT" x1="0" y1="1" x2="1" y2="0"><stop offset="0" stop-color="#8BE6B6"/><stop offset="1" stop-color="#1FB57E"/></linearGradient></defs><g transform="translate(0 0)"><path d="M100 10 C100 3 94 -1 88 2.5 L50 22 C19 37.5 0 66 0 105 L0 196 C0 221 20 231 41 219 L100 190 Z" fill="url(#azB)"/><path d="M0 138.5 L100 90 L100 190 L41 219 C20 231 0 221 0 196 Z" fill="url(#azT)"/></g><g transform="translate(0 0) rotate(180 100 140)"><path d="M100 10 C100 3 94 -1 88 2.5 L50 22 C19 37.5 0 66 0 105 L0 196 C0 221 20 231 41 219 L100 190 Z" fill="url(#mdB)"/><path d="M0 138.5 L100 90 L100 190 L41 219 C20 231 0 221 0 196 Z" fill="url(#mdT)"/></g></svg>